<svg width="56" height="50" viewBox="0 0 56 50" fill="none" xmlns="http://www.w3.org/2000/svg">
<path d="M53.083 3.08008H2.914C1.325 3.08008 0.0339966 4.35608 0.0339966 5.92208V47.1401C0.0339966 48.7061 1.325 49.9831 2.914 49.9831L44.225 49.9781C44.745 49.9781 45.243 49.7761 45.614 49.4151L55.35 40.0011C55.739 39.6241 55.959 39.1051 55.959 38.5641L55.967 5.92108C55.966 4.35608 54.673 3.08008 53.083 3.08008ZM53.958 38.5631L44.224 47.9781L2.914 47.9821C2.427 47.9821 2.034 47.6051 2.034 47.1401V5.92208C2.034 5.45708 2.427 5.08008 2.914 5.08008H53.084C53.572 5.08008 53.967 5.45708 53.967 5.92208L53.958 38.5631Z" fill="white"/>
<path d="M45.191 0.955078C44.638 0.955078 44.191 1.40308 44.191 1.95508V7.18408C44.191 7.73608 44.638 8.18408 45.191 8.18408C45.742 8.18408 46.191 7.73608 46.191 7.18408V1.95508C46.191 1.40208 45.742 0.955078 45.191 0.955078Z" fill="white"/>
<path d="M10.808 0.955078C10.255 0.955078 9.80798 1.40308 9.80798 1.95508V7.18408C9.80798 7.73608 10.255 8.18408 10.808 8.18408C11.361 8.18408 11.808 7.73608 11.808 7.18408V1.95508C11.808 1.40208 11.361 0.955078 10.808 0.955078Z" fill="white"/>
<path d="M54.961 36.952L45.863 36.947C44.263 36.947 42.963 38.207 42.963 39.754L42.955 48.942C42.955 49.493 43.402 49.942 43.955 49.942C44.508 49.942 44.955 49.496 44.955 48.944L44.963 39.755C44.963 39.309 45.365 38.947 45.863 38.947L54.959 38.952C55.512 38.952 55.959 38.505 55.959 37.952C55.959 37.399 55.512 36.952 54.961 36.952Z" fill="white"/>
<path d="M45.306 30.2422H43.142C42.589 30.2422 42.142 30.6892 42.142 31.2422C42.142 31.7942 42.589 32.2422 43.142 32.2422H45.306C45.857 32.2422 46.306 31.7942 46.306 31.2422C46.306 30.6892 45.857 30.2422 45.306 30.2422Z" fill="white"/>
<path d="M38.916 30.2422H1.05798C0.504983 30.2422 0.0579834 30.6892 0.0579834 31.2422C0.0579834 31.7942 0.504983 32.2422 1.05798 32.2422H38.915C39.466 32.2422 39.913 31.7942 39.913 31.2422C39.914 30.6892 39.466 30.2422 38.916 30.2422Z" fill="white"/>
<path d="M16.217 14.5061C15.664 14.5061 15.217 14.9551 15.217 15.5061V48.0261C15.217 48.5771 15.664 49.0241 16.217 49.0241C16.768 49.0241 17.217 48.5771 17.217 48.0261V15.5061C17.217 14.9551 16.768 14.5061 16.217 14.5061Z" fill="white"/>
<path d="M31.455 14.5281C30.902 14.5281 30.455 14.9751 30.455 15.5281V48.0461C30.455 48.5981 30.902 49.0461 31.455 49.0461C32.006 49.0461 32.455 48.5981 32.455 48.0461V15.5281C32.455 14.9751 32.005 14.5281 31.455 14.5281Z" fill="white"/>
<path d="M45.406 13.5071H1.05798C0.504983 13.5071 0.0579834 13.9541 0.0579834 14.5071C0.0579834 15.0581 0.504983 15.5061 1.05798 15.5061H45.406C45.957 15.5061 46.406 15.0581 46.406 14.5071C46.406 13.9551 45.957 13.5071 45.406 13.5071Z" fill="white"/>
</svg>
