<svg width="60" height="54" viewBox="0 0 60 54" fill="none" xmlns="http://www.w3.org/2000/svg">
<path d="M20.333 6.34592C20.166 6.87192 19.604 7.16292 19.078 6.99692C17.865 6.61392 16.599 6.41792 15.315 6.41792C8.438 6.41792 2.842 12.0319 2.842 18.9319C2.842 21.1109 3.388 23.5069 4.27 25.1859C7.441 31.1669 12.777 37.2999 15.314 40.0609C16.044 39.2659 16.996 38.2069 18.068 36.9419C18.425 36.5199 19.057 36.4689 19.478 36.8249C19.899 37.1819 19.951 37.8129 19.594 38.2349C18.4849 39.4669 17.4205 40.6459 16.6308 41.5199C16.5255 41.6365 16.4251 41.7476 16.3301 41.8527C15.7828 42.4581 14.836 42.4681 14.2755 41.8749L13.94 41.5199C11.377 38.7429 5.829 32.3949 2.498 26.1129C1.44 24.0969 0.843002 21.3679 0.843002 18.9309C0.843002 10.9159 7.322 4.41892 15.316 4.41892C16.837 4.41892 18.304 4.65392 19.681 5.08992C20.208 5.25692 20.499 5.81892 20.333 6.34592ZM14.85 16.6999C15.396 16.6159 15.77 16.1049 15.686 15.5589C15.601 15.0129 15.091 14.6389 14.544 14.7229C12.513 15.0379 10.957 16.7849 10.957 18.8909C10.957 20.9479 12.44 22.6619 14.403 23.0329C14.946 23.1359 15.469 22.7799 15.571 22.2359C15.675 21.6929 15.317 21.1699 14.774 21.0669C13.722 20.8679 12.957 19.9529 12.957 18.8909C12.958 17.8079 13.772 16.8669 14.85 16.6999ZM38.419 51.8599C38.419 51.8599 27.571 40.9109 21.824 30.1159C20.454 27.5159 19.679 23.9959 19.679 20.8549C19.679 10.5189 28.068 2.13892 38.418 2.13892C48.768 2.13892 57.156 10.5189 57.156 20.8549C57.156 23.9969 56.381 27.5169 55.011 30.1159C49.267 40.9109 38.419 51.8599 38.419 51.8599ZM38.419 53.8599C38.954 53.8599 39.464 53.6469 39.839 53.2679C40.292 52.8109 50.96 41.9849 56.782 31.0489C58.27 28.2249 59.157 24.4129 59.157 20.8539C59.157 9.43192 49.854 0.138916 38.419 0.138916C26.982 0.138916 17.68 9.43092 17.68 20.8539C17.68 24.4129 18.567 28.2249 20.059 31.0569C25.878 41.9849 36.546 52.8119 37 53.2689C37.375 53.6469 37.886 53.8599 38.419 53.8599ZM38.277 26.2389C35.24 26.2389 32.777 23.8049 32.777 20.8009C32.777 17.7959 35.24 15.3609 38.277 15.3609C41.312 15.3609 43.775 17.7969 43.775 20.8009C43.775 23.8049 41.312 26.2389 38.277 26.2389ZM38.277 28.2389C42.412 28.2389 45.775 24.9019 45.775 20.8009C45.775 16.6989 42.412 13.3619 38.277 13.3619C34.142 13.3619 30.779 16.6989 30.779 20.8009C30.779 24.9019 34.142 28.2389 38.277 28.2389Z" fill="white"/>
</svg>
