<svg width="66" height="50" viewBox="0 0 66 50" fill="none" xmlns="http://www.w3.org/2000/svg">
<path d="M65.529 40.8548L65.525 40.8158C65.205 36.5848 64.224 33.5478 59.511 32.2458L49.906 30.0218C49.906 30.0218 49.285 29.8278 48.92 30.3468C48.032 31.3918 43.505 36.7218 43.505 36.7218C43.505 36.7218 38.504 30.8388 38.098 30.3488C37.692 29.8588 37.11 30.0218 37.11 30.0218L27.506 32.2458C22.793 33.5488 21.813 36.5848 21.494 40.8158L21.019 47.9408C21.002 48.2168 21.098 48.4868 21.288 48.6908C21.478 48.8918 21.74 49.0058 22.018 49.0058H65C65.277 49.0058 65.539 48.8918 65.73 48.6908C65.919 48.4868 66.015 48.2168 65.998 47.9408L65.529 40.8548ZM23.085 47.0078L23.481 41.0208C24.063 36.6838 24.125 35.5048 28.052 34.1688L36.965 32.1078L42.557 38.6968C42.797 38.9798 43.659 39.4678 44.448 38.6988L50.048 32.1058L58.962 34.1688C62.882 35.5008 62.952 36.6778 63.531 40.9858H63.53L63.93 47.0068H23.085V47.0078Z" fill="white"/>
<path d="M54.082 12.2819C53.794 5.83789 49.628 2.49189 44.345 2.09189C43.7452 2.04643 42.742 2.07189 42.668 2.09089C37.374 2.49289 32.915 5.92089 32.91 12.3289V12.3399C32.91 12.8089 32.925 14.2799 32.96 14.8409C33.362 21.1649 36.586 27.3869 43.045 28.1869C43.129 28.2159 43.864 28.2159 43.948 28.1869C50.408 27.3879 53.632 21.1669 54.033 14.8409C54.068 14.2819 54.084 12.8089 54.084 12.3399L54.082 12.2819ZM43.527 26.2319C43.5018 26.234 43.486 26.2338 43.465 26.2319C38.264 25.7539 35.381 20.6609 34.955 14.7059C34.928 14.2979 34.908 12.7579 34.91 12.3399C35.044 6.87389 38.265 4.53889 42.978 4.06889C43.3229 4.04664 43.6749 4.04543 44.015 4.06889C48.72 4.54489 51.663 6.72089 52.083 12.3769C52.082 12.8349 52.064 14.3069 52.036 14.7079V14.7059C51.611 20.6619 48.73 25.7549 43.527 26.2319Z" fill="white"/>
<path d="M32.705 25.7268C32.107 24.2598 30.795 23.2468 28.774 22.6768L21.667 21.0688C21.667 21.0688 21.3565 20.9716 21.1188 21.0516C20.976 21.0996 20.8248 21.1988 20.691 21.3878C19.993 22.1898 16.884 25.7628 16.884 25.7628C16.884 25.7628 13.538 21.9318 13.083 21.3878C12.8792 21.1441 12.7649 21.106 12.6179 21.06C12.3942 20.99 12.109 21.0688 12.109 21.0688L4.99999 22.6758C1.43199 23.5998 0.566994 26.0528 0.369994 29.0918L0.365994 29.1308L0.0199942 34.2388C0.000994164 34.5168 0.0959942 34.7868 0.286994 34.9908C0.476994 35.1938 0.738994 35.3058 1.01699 35.3058H17.047C17.6 35.3058 18.048 34.8588 18.048 34.3068C18.048 33.7538 17.6 33.3068 17.047 33.3068H2.08799L2.36199 29.2778C2.66999 27.2108 2.73499 26.2058 3.56399 25.5138C3.98499 25.1608 4.58099 24.8268 5.55299 24.5978L11.964 23.1498L15.993 27.7858C16.222 28.0508 17.111 28.4828 17.772 27.7858L21.805 23.1498L28.222 24.5988C29.966 25.1488 30.471 25.6528 30.861 26.5088C31.079 27.0178 31.667 27.2538 32.174 27.0378C32.684 26.8208 32.92 26.2338 32.705 25.7268Z" fill="white"/>
<path d="M24.968 7.83187C24.77 2.91287 21.483 0.274872 17.449 0.0248718C17 -0.000122069 16.348 0.019872 16.299 0.027872C12.285 0.296872 8.798 2.98287 8.811 7.87887V7.88987C8.811 8.24487 8.822 9.32687 8.849 9.75987C9.144 14.5069 11.575 19.2749 16.533 19.8939C16.598 19.9129 17.182 19.9129 17.249 19.8939C22.207 19.2739 24.637 14.5069 24.933 9.76087C24.961 9.32587 24.971 8.24387 24.971 7.88887L24.968 7.83187ZM16.891 17.9299C13.238 17.6029 11.161 13.9849 10.844 9.62587C10.823 9.34587 10.81 8.21587 10.811 7.90087C10.922 3.96887 13.132 2.38087 16.529 2.01587C16.55 2.01387 16.8769 1.97481 17.253 2.01587C20.642 2.38587 22.646 3.84587 22.972 7.93287C22.971 8.28187 22.956 9.35387 22.938 9.62787C22.621 13.9849 20.542 17.6039 16.891 17.9299Z" fill="white"/>
</svg>
